<?xml version="1.0" encoding="UTF-8" standalone="no"?>
<svg width="320px" height="311px" viewBox="0 0 320 311" version="1.1" xmlns="http://www.w3.org/2000/svg" xmlns:xlink="http://www.w3.org/1999/xlink" xmlns:sketch="http://www.bohemiancoding.com/sketch/ns">
    <!-- Generator: Sketch 3.3.3 (12081) - http://www.bohemiancoding.com/sketch -->
    <title>Big Shots Logo Copy</title>
    <desc>Created with Sketch.</desc>
    <defs></defs>
    <g id="Homepage" stroke="none" stroke-width="1" fill="none" fill-rule="evenodd" sketch:type="MSPage">
        <g id="Desktop-Homepage" sketch:type="MSArtboardGroup" transform="translate(-35.000000, -2291.000000)">
            <g id="Big-Shots" sketch:type="MSLayerGroup" transform="translate(0.000000, 2251.000000)">
                <g id="Big-Shots-Logo-Copy" transform="translate(33.000000, 40.000000)" sketch:type="MSShapeGroup">
                    <g id="Box">
                        <path d="M2.5,39.4538531 L2.5,310.351127" id="Line" stroke="#000000" stroke-linecap="square"></path>
                        <path d="M3.11228716,310.5 L272.500013,310.5" id="Line" stroke="#000000" stroke-linecap="square"></path>
                        <path d="M17.5,24.492616 L17.5,295.351127" id="Line" stroke="#000000" stroke-linecap="square"></path>
                        <path d="M18.1122872,295.5 L287.507429,295.5" id="Line" stroke="#000000" stroke-linecap="square"></path>
                        <rect id="Rectangle" fill="#000000" x="33" y="0" width="289" height="280"></rect>
                    </g>
                    <g id="Type" transform="translate(117.000000, 111.000000)" fill="#FFFFFF">
                        <path d="M112.195492,59.6603191 L112.195492,59.3343181 C109.84104,58.9720947 107.414143,55.5671951 106.689696,51.8000721 L106.363695,51.8000721 L106.762141,58.5012043 C107.703922,58.9358724 109.877262,59.4792074 112.195492,59.6603191 L112.195492,59.6603191 Z M121.359743,53.2127432 C121.359743,49.2645085 118.570623,47.706948 115.346835,45.9320535 C111.978157,44.0847144 109.84104,43.0342666 109.84104,40.390036 C109.84104,38.1080288 110.963932,36.8040247 113.137272,36.622913 L113.137272,36.296912 C109.985929,36.5504683 106.90703,38.6875862 106.90703,42.2373752 C106.90703,45.8233865 110.348152,47.6707257 113.318384,49.2645085 C116.542172,50.9669583 118.425733,52.2709624 118.425733,54.6254143 C118.425733,57.7767576 116.324838,59.1532064 113.753052,59.2980957 L113.753052,59.6240968 C116.868173,59.4067627 121.359743,57.9940916 121.359743,53.2127432 L121.359743,53.2127432 Z M120.128183,42.4909315 L119.838405,37.1300257 C118.67929,36.73158 116.179949,36.2606897 114.8035,36.2606897 L114.8035,36.5866907 C117.737509,36.9851364 119.077735,39.4844776 119.802182,42.4909315 L120.128183,42.4909315 L120.128183,42.4909315 Z M92.4415337,36.5504683 L88.8917447,36.5504683 L88.8917447,54.8789707 C88.8917447,57.9216469 88.1310757,58.790983 85.6679568,59.0807617 L85.6679568,59.3705404 L95.6653217,59.3705404 L95.6653217,59.0807617 C93.2022028,58.790983 92.4415337,57.9216469 92.4415337,54.8789707 L92.4415337,36.5504683 L92.4415337,36.5504683 Z M94.1802059,36.840247 C95.2306536,36.8764694 96.2086567,37.1300257 97.2228821,37.6371384 C98.925332,38.5064745 100.229336,40.6435924 100.881338,43.2516006 L101.207339,43.2516006 L100.808893,36.5504683 L94.1802059,36.5504683 L94.1802059,36.840247 L94.1802059,36.840247 Z M87.1530726,36.5504683 L80.524385,36.5504683 L80.1259393,43.2516006 L80.4519403,43.2516006 C81.1039424,40.6435924 82.4079465,38.5064745 84.1103963,37.6371384 C85.1246217,37.1300257 86.1026248,36.8764694 87.1530726,36.840247 L87.1530726,36.5504683 L87.1530726,36.5504683 Z M62.869192,36.5866907 C63.7747504,36.6591354 64.7527535,36.9126917 65.5858672,37.2749151 C69.3529902,38.9411426 71.0916624,43.39649 71.0916624,48.5400618 C71.0916624,54.0820793 69.1718785,57.0885332 66.4552033,58.5374267 C65.7307566,58.9358724 64.6440865,59.1894287 64.0283067,59.2980957 L64.0283067,59.6240968 C69.2805455,59.2618734 75.0036747,55.1687494 75.0036747,48.1416161 C75.0036747,41.9113742 71.0192177,36.3693567 62.869192,36.2606897 L62.869192,36.5866907 L62.869192,36.5866907 Z M62.4707463,59.3343181 C61.5651879,59.2618734 60.5871848,59.008317 59.754071,58.6460937 C55.986948,56.9798662 54.2482759,52.5245188 54.2482759,47.380947 C54.2482759,41.8389295 56.1680597,38.8324756 58.8847349,37.3835821 C59.6091817,36.9851364 60.6958518,36.73158 61.3116315,36.622913 L61.3116315,36.296912 C56.0593927,36.622913 50.3362635,40.7522594 50.3362635,47.7793927 C50.3362635,54.0096346 54.3207205,59.5516521 62.4707463,59.6603191 L62.4707463,59.3343181 L62.4707463,59.3343181 Z M42.4781472,41.0420381 C42.4781472,37.9993618 43.2388163,37.1300257 45.7019352,36.840247 L45.7019352,36.5504683 L35.7045703,36.5504683 L35.7045703,36.840247 C38.1676891,37.1300257 38.9283582,37.9993618 38.9283582,41.0420381 L38.9283582,54.8789707 C38.9283582,57.9216469 38.1676891,58.790983 35.7045703,59.0807617 L35.7045703,59.3705404 L45.7019352,59.3705404 L45.7019352,59.0807617 C43.2388163,58.790983 42.4781472,57.9216469 42.4781472,54.8789707 L42.4781472,41.0420381 L42.4781472,41.0420381 Z M22.9905301,54.8789707 C22.9905301,57.9216469 22.229861,58.790983 19.7667422,59.0807617 L19.7667422,59.3705404 L29.7641071,59.3705404 L29.7641071,59.0807617 C27.3009882,58.790983 26.5403191,57.9216469 26.5403191,54.8789707 L26.5403191,41.0420381 C26.5403191,37.9993618 27.3009882,37.1300257 29.7641071,36.840247 L29.7641071,36.5504683 L19.7667422,36.5504683 L19.7667422,36.840247 C22.229861,37.1300257 22.9905301,37.9993618 22.9905301,41.0420381 L22.9905301,54.8789707 L22.9905301,54.8789707 Z M27.8081009,47.9967267 L37.6605764,47.9967267 L37.6605764,47.1998353 L27.8081009,47.1998353 L27.8081009,47.9967267 Z M5.97668554,59.6603191 L5.97668554,59.3343181 C3.62223366,58.9720947 1.19533711,55.5671951 0.470890376,51.8000721 L0.144889346,51.8000721 L0.543335049,58.5012043 C1.4851158,58.9358724 3.658456,59.4792074 5.97668554,59.6603191 L5.97668554,59.6603191 Z M15.1409367,53.2127432 C15.1409367,49.2645085 12.3518168,47.706948 9.12802882,45.9320535 C5.75935152,44.0847144 3.62223366,43.0342666 3.62223366,40.390036 C3.62223366,38.1080288 4.74512609,36.8040247 6.91846629,36.622913 L6.91846629,36.296912 C3.76712301,36.5504683 0.688224395,38.6875862 0.688224395,42.2373752 C0.688224395,45.8233865 4.12934637,47.6707257 7.09957797,49.2645085 C10.3233659,50.9669583 12.2069274,52.2709624 12.2069274,54.6254143 C12.2069274,57.7767576 10.1060319,59.1532064 7.53424601,59.2980957 L7.53424601,59.6240968 C10.649367,59.4067627 15.1409367,57.9940916 15.1409367,53.2127432 L15.1409367,53.2127432 Z M13.9093773,42.4909315 L13.6195986,37.1300257 C12.4604838,36.73158 9.96114256,36.2606897 8.58469377,36.2606897 L8.58469377,36.5866907 C11.518703,36.9851364 12.8589295,39.4844776 13.5833762,42.4909315 L13.9093773,42.4909315 L13.9093773,42.4909315 Z" id="Fill-1"></path>
                        <path d="M49.3049923,23.1119815 C48.3994339,23.0395368 47.4214308,22.7859804 46.588317,22.4237571 C42.821194,20.7575296 41.0825219,16.3021822 41.0825219,11.1586104 C41.0825219,5.6165929 43.0023057,2.61013896 45.718981,1.1612455 C46.4434277,0.762799794 47.5300978,0.509243438 48.1458775,0.400576428 L48.1458775,0.0745753989 C42.8936387,0.400576428 37.1705095,4.5299228 37.1705095,11.5570561 C37.1705095,17.787298 41.1549665,23.3293155 49.3049923,23.4379825 L49.3049923,23.1119815 L49.3049923,23.1119815 Z M54.8107874,17.5337416 L54.8107874,20.6850849 C54.8107874,21.7355327 54.2674524,22.3150901 53.253227,22.6410911 C52.4925579,22.8946475 51.9130005,23.0033145 50.9349974,23.0757591 L50.9349974,23.4017602 C53.14456,23.3293155 56.4770149,22.7859804 58.1070201,22.2064231 L58.1070201,17.5337416 C58.1070201,14.4910654 58.8676891,13.6217293 61.330808,13.3319506 L61.330808,13.0421719 L51.5869995,13.0421719 L51.5869995,13.3319506 C54.0501184,13.6217293 54.8107874,14.4910654 54.8107874,17.5337416 L54.8107874,17.5337416 Z M57.9259084,7.24659804 L57.3825733,0.980133814 C55.9699022,0.436798765 53.0358929,0.0383530623 49.7396603,0.0383530623 L49.7396603,0.328131755 C50.35544,0.400576428 50.8987751,0.400576428 51.4783325,0.545465775 C54.6658981,1.23369017 56.8754606,3.8416984 57.5999074,7.24659804 L57.9259084,7.24659804 L57.9259084,7.24659804 Z M25.9927226,18.6566341 C25.9927226,21.6993103 25.2320535,22.5686464 22.7689346,22.8584251 L22.7689346,23.1482038 L32.7662995,23.1482038 L32.7662995,22.8584251 C30.3031806,22.5686464 29.5425116,21.6993103 29.5425116,18.6566341 L29.5425116,4.81970149 C29.5425116,1.77702522 30.3031806,0.907689141 32.7662995,0.617910448 L32.7662995,0.328131755 L22.7689346,0.328131755 L22.7689346,0.617910448 C25.2320535,0.907689141 25.9927226,1.77702522 25.9927226,4.81970149 L25.9927226,18.6566341 L25.9927226,18.6566341 Z M18.4371693,17.0990736 C18.4371693,13.0783942 14.851158,11.5570561 11.0478127,11.0861657 L11.0478127,11.013721 C14.0180443,10.4341637 16.6984972,8.44193515 16.6984972,5.72525991 C16.6984972,1.37857952 12.0982604,0.328131755 8.98313948,0.328131755 L8.98313948,0.617910448 C11.518703,0.799022131 13.2211529,1.99435924 13.2211529,5.79770458 C13.2211529,7.93482244 11.9895934,10.1081626 9.9973649,10.7601647 C9.56269686,10.905054 8.94691714,10.9774987 8.62091611,10.9774987 L8.62091611,11.2310551 C9.3091405,11.2310551 10.3595883,11.3397221 10.9391457,11.5570561 C13.2573752,12.3901698 14.7787133,14.4186207 14.7787133,17.0990736 C14.7787133,20.2141945 13.6558209,22.4962017 8.98313948,22.8584251 L8.98313948,23.1482038 C9.38158518,23.1482038 10.3595883,23.1482038 10.9391457,23.0757591 C14.9960473,22.7135358 18.4371693,21.0835306 18.4371693,17.0990736 L18.4371693,17.0990736 Z M0,23.1482038 L6.77357694,23.1482038 L6.77357694,0.328131755 L0,0.328131755 L0,0.617910448 C2.46311889,0.907689141 3.22378796,1.77702522 3.22378796,4.81970149 L3.22378796,18.6566341 C3.22378796,21.6993103 2.46311889,22.5686464 0,22.8584251 L0,23.1482038 L0,23.1482038 Z" id="Fill-2"></path>
                    </g>
                    <path d="M49.5,263.5 L49,263.5 L49.5,263.5 L49.5,248.915094 L49.5,263.5 Z M49.5,263.5 L64,263.5 L49.5,263.5 L49.5,263.915094 L49.5,263.5 L49.5,263.5 Z M49.5,263.495728 L97.7799988,215.215729 L49.5,263.495728 Z" id="Line-Copy-18" stroke="#FFFFFF" stroke-linecap="square"></path>
                    <path d="M258,63.7842707 L257.5,63.7842707 L258,63.7842707 L258,49.1993651 L258,63.7842707 Z M258,63.7842707 L272.5,63.7842707 L258,63.7842707 L258,64.1993651 L258,63.7842707 L258,63.7842707 Z M258,63.7799988 L306.279999,15.5 L258,63.7799988 Z" id="Line-Copy-31" stroke="#FFFFFF" stroke-linecap="square" transform="translate(281.639999, 40.142135) rotate(-180.000000) translate(-281.639999, -40.142135) "></path>
                </g>
            </g>
        </g>
    </g>
</svg>